<mxfile host="app.diagrams.net" modified="2022-05-27T13:24:21.221Z" agent="5.0 (Windows NT 10.0; Win64; x64) AppleWebKit/537.36 (KHTML, like Gecko) Chrome/97.0.4692.99 Safari/537.36" etag="YbqHHab-saBuUHjfIyFU" version="18.1.3" type="github">
  <diagram id="FthiqLE9ZK1Kx-LcXXlY" name="Page-1">
    <mxGraphModel dx="1420" dy="952" grid="1" gridSize="10" guides="1" tooltips="1" connect="1" arrows="1" fold="1" page="1" pageScale="1" pageWidth="1169" pageHeight="1654" math="0" shadow="0">
      <root>
        <mxCell id="0" />
        <mxCell id="1" parent="0" />
        <mxCell id="91Z8wUPwySo1Unr-oXg9-57" value="" style="shape=ext;double=1;rounded=1;whiteSpace=wrap;html=1;fontSize=16;" parent="1" vertex="1">
          <mxGeometry x="130" y="222" width="120" height="370" as="geometry" />
        </mxCell>
        <mxCell id="91Z8wUPwySo1Unr-oXg9-7" value="" style="rounded=1;whiteSpace=wrap;html=1;rotation=0;fillColor=#FFF6E8;strokeColor=#d79b00;" parent="1" vertex="1">
          <mxGeometry x="140" y="232" width="99" height="60" as="geometry" />
        </mxCell>
        <mxCell id="91Z8wUPwySo1Unr-oXg9-10" value="…………" style="text;html=1;strokeColor=none;fillColor=none;align=center;verticalAlign=middle;whiteSpace=wrap;rounded=0;rotation=90;fontSize=24;" parent="1" vertex="1">
          <mxGeometry x="117.5" y="387" width="163" height="30" as="geometry" />
        </mxCell>
        <mxCell id="91Z8wUPwySo1Unr-oXg9-11" value="" style="rounded=1;whiteSpace=wrap;html=1;fillColor=#FFF6E8;strokeColor=#d79b00;" parent="1" vertex="1">
          <mxGeometry x="140" y="522" width="99" height="60" as="geometry" />
        </mxCell>
        <mxCell id="91Z8wUPwySo1Unr-oXg9-21" value="Client 1" style="text;html=1;strokeColor=none;fillColor=none;align=center;verticalAlign=middle;whiteSpace=wrap;rounded=0;" parent="1" vertex="1">
          <mxGeometry x="159.5" y="247" width="60" height="30" as="geometry" />
        </mxCell>
        <mxCell id="91Z8wUPwySo1Unr-oXg9-23" value="Client N" style="text;html=1;strokeColor=none;fillColor=none;align=center;verticalAlign=middle;whiteSpace=wrap;rounded=0;" parent="1" vertex="1">
          <mxGeometry x="159.5" y="537" width="60" height="30" as="geometry" />
        </mxCell>
        <mxCell id="91Z8wUPwySo1Unr-oXg9-25" value="" style="endArrow=classic;html=1;rounded=0;" parent="1" edge="1">
          <mxGeometry width="50" height="50" relative="1" as="geometry">
            <mxPoint x="239" y="261.28999999999996" as="sourcePoint" />
            <mxPoint x="300" y="262" as="targetPoint" />
          </mxGeometry>
        </mxCell>
        <mxCell id="91Z8wUPwySo1Unr-oXg9-27" value="" style="endArrow=classic;html=1;rounded=0;" parent="1" edge="1">
          <mxGeometry width="50" height="50" relative="1" as="geometry">
            <mxPoint x="239" y="551.29" as="sourcePoint" />
            <mxPoint x="300" y="552" as="targetPoint" />
          </mxGeometry>
        </mxCell>
        <mxCell id="91Z8wUPwySo1Unr-oXg9-29" value="" style="ellipse;whiteSpace=wrap;html=1;strokeWidth=2;fillWeight=2;hachureGap=8;fillColor=#F19C99;fillStyle=dots;sketch=1;" parent="1" vertex="1">
          <mxGeometry x="70" y="240.5" width="47.5" height="43" as="geometry" />
        </mxCell>
        <mxCell id="91Z8wUPwySo1Unr-oXg9-30" value="" style="ellipse;whiteSpace=wrap;html=1;strokeWidth=2;fillWeight=2;hachureGap=8;fillColor=#00FFFF;fillStyle=dots;sketch=1;gradientColor=#97d077;strokeColor=#000000;" parent="1" vertex="1">
          <mxGeometry x="70" y="530.5" width="47.5" height="43" as="geometry" />
        </mxCell>
        <mxCell id="91Z8wUPwySo1Unr-oXg9-31" value="&lt;font style=&quot;font-size: 16px;&quot;&gt;Server&lt;br&gt;Aggre-gation&lt;/font&gt;" style="rounded=0;whiteSpace=wrap;html=1;fontSize=24;strokeColor=#000000;fillColor=#F0FEFF;" parent="1" vertex="1">
          <mxGeometry x="300" y="232" width="60" height="350" as="geometry" />
        </mxCell>
        <mxCell id="91Z8wUPwySo1Unr-oXg9-33" value="" style="shape=flexArrow;endArrow=classic;html=1;rounded=0;fontSize=16;width=11.428571428571429;endSize=7.285714285714286;" parent="1" edge="1">
          <mxGeometry width="50" height="50" relative="1" as="geometry">
            <mxPoint x="360" y="412" as="sourcePoint" />
            <mxPoint x="410" y="412" as="targetPoint" />
            <Array as="points">
              <mxPoint x="380" y="412" />
            </Array>
          </mxGeometry>
        </mxCell>
        <mxCell id="91Z8wUPwySo1Unr-oXg9-42" value="Client Prototypes" style="rounded=0;whiteSpace=wrap;html=1;fontSize=16;strokeColor=#000000;fillColor=#FFF6E8;" parent="1" vertex="1">
          <mxGeometry x="410" y="227" width="120" height="40" as="geometry" />
        </mxCell>
        <mxCell id="91Z8wUPwySo1Unr-oXg9-45" value="Global Prototypes" style="rounded=0;whiteSpace=wrap;html=1;fontSize=16;strokeColor=#000000;fillColor=#FFF6E8;" parent="1" vertex="1">
          <mxGeometry x="410" y="267" width="120" height="40" as="geometry" />
        </mxCell>
        <mxCell id="91Z8wUPwySo1Unr-oXg9-46" value="Class 1" style="rounded=0;whiteSpace=wrap;html=1;fontSize=16;strokeColor=#000000;fillColor=#E0FFE6;" parent="1" vertex="1">
          <mxGeometry x="410" y="267" width="120" height="40" as="geometry" />
        </mxCell>
        <mxCell id="91Z8wUPwySo1Unr-oXg9-47" value="Class 2" style="rounded=0;whiteSpace=wrap;html=1;fontSize=16;strokeColor=#36393d;fillColor=#cdeb8b;" parent="1" vertex="1">
          <mxGeometry x="410" y="307" width="120" height="40" as="geometry" />
        </mxCell>
        <mxCell id="91Z8wUPwySo1Unr-oXg9-48" value="Class 3" style="rounded=0;whiteSpace=wrap;html=1;fontSize=16;strokeColor=#36393d;fillColor=#ffcc99;" parent="1" vertex="1">
          <mxGeometry x="410" y="347" width="120" height="40" as="geometry" />
        </mxCell>
        <mxCell id="91Z8wUPwySo1Unr-oXg9-49" value="&amp;nbsp;……" style="rounded=0;whiteSpace=wrap;html=1;fontSize=16;" parent="1" vertex="1">
          <mxGeometry x="410" y="387" width="120" height="40" as="geometry" />
        </mxCell>
        <mxCell id="91Z8wUPwySo1Unr-oXg9-50" value="……" style="rounded=0;whiteSpace=wrap;html=1;fontSize=16;" parent="1" vertex="1">
          <mxGeometry x="410" y="427" width="120" height="40" as="geometry" />
        </mxCell>
        <mxCell id="91Z8wUPwySo1Unr-oXg9-51" value="……" style="rounded=0;whiteSpace=wrap;html=1;fontSize=16;" parent="1" vertex="1">
          <mxGeometry x="410" y="467" width="120" height="40" as="geometry" />
        </mxCell>
        <mxCell id="91Z8wUPwySo1Unr-oXg9-52" value="Class K-1" style="rounded=0;whiteSpace=wrap;html=1;fontSize=16;strokeColor=#36393d;fillColor=#cce5ff;" parent="1" vertex="1">
          <mxGeometry x="410" y="507" width="120" height="40" as="geometry" />
        </mxCell>
        <mxCell id="91Z8wUPwySo1Unr-oXg9-53" value="Class K" style="rounded=0;whiteSpace=wrap;html=1;fontSize=16;strokeColor=#000000;fillColor=#FFF6E8;" parent="1" vertex="1">
          <mxGeometry x="410" y="547" width="120" height="40" as="geometry" />
        </mxCell>
        <mxCell id="91Z8wUPwySo1Unr-oXg9-54" value="Shared Data-set&lt;br&gt;(Unlabled)" style="ellipse;shape=cloud;whiteSpace=wrap;html=1;fontSize=16;strokeColor=#000000;fillColor=#E0FFE6;" parent="1" vertex="1">
          <mxGeometry x="510" y="790" width="220" height="120" as="geometry" />
        </mxCell>
        <mxCell id="91Z8wUPwySo1Unr-oXg9-56" value="" style="edgeStyle=elbowEdgeStyle;elbow=vertical;endArrow=classic;html=1;rounded=0;fontSize=16;entryX=0.336;entryY=0.998;entryDx=0;entryDy=0;startArrow=none;entryPerimeter=0;" parent="1" source="91Z8wUPwySo1Unr-oXg9-221" target="91Z8wUPwySo1Unr-oXg9-57" edge="1">
          <mxGeometry width="50" height="50" relative="1" as="geometry">
            <mxPoint x="380" y="772" as="sourcePoint" />
            <mxPoint x="190" y="612" as="targetPoint" />
            <Array as="points">
              <mxPoint x="170" y="620" />
              <mxPoint x="150" y="610" />
              <mxPoint x="150" y="630" />
              <mxPoint x="150" y="680" />
              <mxPoint x="140" y="650" />
              <mxPoint x="160" y="658" />
            </Array>
          </mxGeometry>
        </mxCell>
        <mxCell id="91Z8wUPwySo1Unr-oXg9-58" value="" style="edgeStyle=segmentEdgeStyle;endArrow=classic;html=1;rounded=0;fontSize=16;entryX=0.5;entryY=0;entryDx=0;entryDy=0;exitX=0.5;exitY=0;exitDx=0;exitDy=0;dashed=1;" parent="1" source="91Z8wUPwySo1Unr-oXg9-42" target="91Z8wUPwySo1Unr-oXg9-57" edge="1">
          <mxGeometry width="50" height="50" relative="1" as="geometry">
            <mxPoint x="440" y="222" as="sourcePoint" />
            <mxPoint x="490" y="172" as="targetPoint" />
            <Array as="points">
              <mxPoint x="470" y="182" />
              <mxPoint x="190" y="182" />
            </Array>
          </mxGeometry>
        </mxCell>
        <mxCell id="91Z8wUPwySo1Unr-oXg9-59" value="&lt;i&gt;&lt;font color=&quot;#3d03ff&quot;&gt;&lt;b&gt;S1:Proto-Loss&lt;/b&gt;&lt;/font&gt;&lt;/i&gt;" style="text;html=1;strokeColor=none;fillColor=none;align=center;verticalAlign=middle;whiteSpace=wrap;rounded=0;fontSize=16;" parent="1" vertex="1">
          <mxGeometry x="270" y="152" width="140" height="30" as="geometry" />
        </mxCell>
        <mxCell id="91Z8wUPwySo1Unr-oXg9-216" value="&lt;b&gt;&lt;font color=&quot;#3d03ff&quot;&gt;S1&lt;/font&gt;&lt;/b&gt;" style="text;html=1;strokeColor=none;fillColor=none;align=center;verticalAlign=middle;whiteSpace=wrap;rounded=0;fontFamily=Helvetica;fontSize=16;" parent="1" vertex="1">
          <mxGeometry x="239" y="232" width="60" height="30" as="geometry" />
        </mxCell>
        <mxCell id="91Z8wUPwySo1Unr-oXg9-218" value="&lt;b&gt;&lt;font color=&quot;#3d03ff&quot;&gt;S1&lt;/font&gt;&lt;/b&gt;" style="text;html=1;strokeColor=none;fillColor=none;align=center;verticalAlign=middle;whiteSpace=wrap;rounded=0;fontFamily=Helvetica;fontSize=16;" parent="1" vertex="1">
          <mxGeometry x="239" y="517" width="60" height="30" as="geometry" />
        </mxCell>
        <mxCell id="91Z8wUPwySo1Unr-oXg9-221" value="&lt;font color=&quot;#c40000&quot; style=&quot;line-height: 4; font-size: 16px;&quot;&gt;&lt;b style=&quot;&quot;&gt;S2&lt;/b&gt;&lt;/font&gt;" style="text;html=1;strokeColor=none;fillColor=none;align=center;verticalAlign=middle;whiteSpace=wrap;rounded=0;fontFamily=Helvetica;fontSize=16;" parent="1" vertex="1">
          <mxGeometry x="140" y="730" width="60" height="30" as="geometry" />
        </mxCell>
        <mxCell id="91Z8wUPwySo1Unr-oXg9-222" value="" style="edgeStyle=elbowEdgeStyle;elbow=vertical;endArrow=none;html=1;rounded=0;fontSize=16;entryX=0.5;entryY=1;entryDx=0;entryDy=0;exitX=0.16;exitY=0.55;exitDx=0;exitDy=0;exitPerimeter=0;" parent="1" source="91Z8wUPwySo1Unr-oXg9-54" target="91Z8wUPwySo1Unr-oXg9-221" edge="1">
          <mxGeometry width="50" height="50" relative="1" as="geometry">
            <mxPoint x="380" y="772" as="sourcePoint" />
            <mxPoint x="190" y="592" as="targetPoint" />
            <Array as="points">
              <mxPoint x="380" y="856" />
              <mxPoint x="150" y="800" />
              <mxPoint x="450" y="926" />
              <mxPoint x="390" y="950" />
            </Array>
          </mxGeometry>
        </mxCell>
        <mxCell id="91Z8wUPwySo1Unr-oXg9-225" value="" style="rounded=1;whiteSpace=wrap;html=1;fontFamily=Helvetica;fontSize=16;" parent="1" vertex="1">
          <mxGeometry x="890" y="347" width="210" height="143" as="geometry" />
        </mxCell>
        <mxCell id="91Z8wUPwySo1Unr-oXg9-226" value="Server Model" style="text;html=1;strokeColor=none;fillColor=none;align=center;verticalAlign=middle;whiteSpace=wrap;rounded=0;fontFamily=Helvetica;fontSize=16;" parent="1" vertex="1">
          <mxGeometry x="935" y="307" width="120" height="35" as="geometry" />
        </mxCell>
        <mxCell id="91Z8wUPwySo1Unr-oXg9-227" value="" style="rounded=1;whiteSpace=wrap;html=1;fontFamily=Helvetica;fontSize=16;strokeColor=#d6b656;fillColor=#fff2cc;gradientColor=#ffd966;" parent="1" vertex="1">
          <mxGeometry x="970" y="353.5" width="50" height="130" as="geometry" />
        </mxCell>
        <mxCell id="91Z8wUPwySo1Unr-oXg9-228" value="" style="edgeStyle=segmentEdgeStyle;endArrow=classic;html=1;rounded=0;fontFamily=Helvetica;fontSize=16;exitX=0.875;exitY=0.5;exitDx=0;exitDy=0;exitPerimeter=0;fontColor=#C40000;entryX=0.75;entryY=1;entryDx=0;entryDy=0;" parent="1" source="91Z8wUPwySo1Unr-oXg9-54" target="91Z8wUPwySo1Unr-oXg9-225" edge="1">
          <mxGeometry width="50" height="50" relative="1" as="geometry">
            <mxPoint x="600" y="480" as="sourcePoint" />
            <mxPoint x="980" y="450" as="targetPoint" />
            <Array as="points">
              <mxPoint x="1048" y="850" />
            </Array>
          </mxGeometry>
        </mxCell>
        <mxCell id="91Z8wUPwySo1Unr-oXg9-243" value="&lt;font color=&quot;#c40000&quot;&gt;S2&lt;/font&gt;" style="edgeLabel;html=1;align=center;verticalAlign=middle;resizable=0;points=[];fontSize=16;fontFamily=Helvetica;fontStyle=1" parent="91Z8wUPwySo1Unr-oXg9-228" vertex="1" connectable="0">
          <mxGeometry x="-0.3389" y="5" relative="1" as="geometry">
            <mxPoint x="9" y="5" as="offset" />
          </mxGeometry>
        </mxCell>
        <mxCell id="91Z8wUPwySo1Unr-oXg9-229" value="……" style="text;html=1;strokeColor=none;fillColor=none;align=center;verticalAlign=middle;whiteSpace=wrap;rounded=0;fontFamily=Helvetica;fontSize=16;" parent="1" vertex="1">
          <mxGeometry x="900" y="400" width="60" height="30" as="geometry" />
        </mxCell>
        <mxCell id="91Z8wUPwySo1Unr-oXg9-230" value="……" style="text;html=1;strokeColor=none;fillColor=none;align=center;verticalAlign=middle;whiteSpace=wrap;rounded=0;fontFamily=Helvetica;fontSize=16;" parent="1" vertex="1">
          <mxGeometry x="1030" y="403.5" width="60" height="30" as="geometry" />
        </mxCell>
        <mxCell id="91Z8wUPwySo1Unr-oXg9-254" value="Server Prototypes" style="rounded=0;whiteSpace=wrap;html=1;fontSize=16;strokeColor=#000000;fillColor=#FFF6E8;" parent="1" vertex="1">
          <mxGeometry x="750" y="227" width="120" height="40" as="geometry" />
        </mxCell>
        <mxCell id="91Z8wUPwySo1Unr-oXg9-255" value="Global Prototypes" style="rounded=0;whiteSpace=wrap;html=1;fontSize=16;strokeColor=#000000;fillColor=#FFF6E8;" parent="1" vertex="1">
          <mxGeometry x="750" y="267" width="120" height="40" as="geometry" />
        </mxCell>
        <mxCell id="91Z8wUPwySo1Unr-oXg9-256" value="Class 1" style="rounded=0;whiteSpace=wrap;html=1;fontSize=16;strokeColor=#000000;fillColor=#E0FFE6;" parent="1" vertex="1">
          <mxGeometry x="750" y="267" width="120" height="40" as="geometry" />
        </mxCell>
        <mxCell id="91Z8wUPwySo1Unr-oXg9-257" value="Class 2" style="rounded=0;whiteSpace=wrap;html=1;fontSize=16;strokeColor=#36393d;fillColor=#cdeb8b;" parent="1" vertex="1">
          <mxGeometry x="750" y="307" width="120" height="40" as="geometry" />
        </mxCell>
        <mxCell id="91Z8wUPwySo1Unr-oXg9-258" value="Class 3" style="rounded=0;whiteSpace=wrap;html=1;fontSize=16;strokeColor=#36393d;fillColor=#ffcc99;" parent="1" vertex="1">
          <mxGeometry x="750" y="347" width="120" height="40" as="geometry" />
        </mxCell>
        <mxCell id="91Z8wUPwySo1Unr-oXg9-259" value="&amp;nbsp;……" style="rounded=0;whiteSpace=wrap;html=1;fontSize=16;" parent="1" vertex="1">
          <mxGeometry x="750" y="387" width="120" height="40" as="geometry" />
        </mxCell>
        <mxCell id="91Z8wUPwySo1Unr-oXg9-260" value="……" style="rounded=0;whiteSpace=wrap;html=1;fontSize=16;" parent="1" vertex="1">
          <mxGeometry x="750" y="427" width="120" height="40" as="geometry" />
        </mxCell>
        <mxCell id="91Z8wUPwySo1Unr-oXg9-261" value="……" style="rounded=0;whiteSpace=wrap;html=1;fontSize=16;" parent="1" vertex="1">
          <mxGeometry x="750" y="467" width="120" height="40" as="geometry" />
        </mxCell>
        <mxCell id="91Z8wUPwySo1Unr-oXg9-262" value="Class K-1" style="rounded=0;whiteSpace=wrap;html=1;fontSize=16;strokeColor=#36393d;fillColor=#cce5ff;" parent="1" vertex="1">
          <mxGeometry x="750" y="507" width="120" height="40" as="geometry" />
        </mxCell>
        <mxCell id="91Z8wUPwySo1Unr-oXg9-263" value="Class K" style="rounded=0;whiteSpace=wrap;html=1;fontSize=16;strokeColor=#000000;fillColor=#FFF6E8;" parent="1" vertex="1">
          <mxGeometry x="750" y="547" width="120" height="40" as="geometry" />
        </mxCell>
        <mxCell id="91Z8wUPwySo1Unr-oXg9-276" value="&lt;b&gt;&lt;font color=&quot;#3d03ff&quot;&gt;S1&lt;/font&gt;&lt;/b&gt;" style="text;html=1;strokeColor=none;fillColor=none;align=center;verticalAlign=middle;whiteSpace=wrap;rounded=0;fontFamily=Helvetica;fontSize=16;" parent="1" vertex="1">
          <mxGeometry x="350" y="370" width="60" height="30" as="geometry" />
        </mxCell>
        <mxCell id="91Z8wUPwySo1Unr-oXg9-278" value="" style="edgeStyle=elbowEdgeStyle;elbow=horizontal;endArrow=classic;html=1;rounded=0;fontFamily=Helvetica;fontSize=16;fontColor=#C40000;exitX=0.75;exitY=1;exitDx=0;exitDy=0;" parent="1" source="91Z8wUPwySo1Unr-oXg9-57" edge="1">
          <mxGeometry width="50" height="50" relative="1" as="geometry">
            <mxPoint x="220" y="640" as="sourcePoint" />
            <mxPoint x="500" y="660" as="targetPoint" />
            <Array as="points">
              <mxPoint x="220" y="620" />
            </Array>
          </mxGeometry>
        </mxCell>
        <mxCell id="91Z8wUPwySo1Unr-oXg9-279" value="" style="edgeStyle=segmentEdgeStyle;endArrow=classic;html=1;rounded=0;fontFamily=Helvetica;fontSize=16;fontColor=#C40000;exitX=0.5;exitY=1;exitDx=0;exitDy=0;" parent="1" source="91Z8wUPwySo1Unr-oXg9-53" edge="1">
          <mxGeometry width="50" height="50" relative="1" as="geometry">
            <mxPoint x="470" y="600" as="sourcePoint" />
            <mxPoint x="470" y="660" as="targetPoint" />
            <Array as="points" />
          </mxGeometry>
        </mxCell>
        <mxCell id="91Z8wUPwySo1Unr-oXg9-280" value="&lt;font color=&quot;#c40000&quot; style=&quot;line-height: 4; font-size: 16px;&quot;&gt;&lt;b style=&quot;&quot;&gt;S2&lt;/b&gt;&lt;/font&gt;" style="text;html=1;strokeColor=none;fillColor=none;align=center;verticalAlign=middle;whiteSpace=wrap;rounded=0;fontFamily=Helvetica;fontSize=16;" parent="1" vertex="1">
          <mxGeometry x="860" y="630" width="60" height="30" as="geometry" />
        </mxCell>
        <mxCell id="91Z8wUPwySo1Unr-oXg9-282" value="" style="edgeStyle=elbowEdgeStyle;elbow=vertical;endArrow=classic;html=1;rounded=0;fontFamily=Helvetica;fontSize=16;fontColor=#C40000;exitX=0.75;exitY=1;exitDx=0;exitDy=0;" parent="1" source="91Z8wUPwySo1Unr-oXg9-227" edge="1">
          <mxGeometry width="50" height="50" relative="1" as="geometry">
            <mxPoint x="910" y="480" as="sourcePoint" />
            <mxPoint x="640" y="660" as="targetPoint" />
            <Array as="points">
              <mxPoint x="910" y="660" />
            </Array>
          </mxGeometry>
        </mxCell>
        <mxCell id="91Z8wUPwySo1Unr-oXg9-283" value="" style="edgeStyle=segmentEdgeStyle;endArrow=classic;html=1;rounded=0;fontFamily=Helvetica;fontSize=16;fontColor=#C40000;exitX=0.5;exitY=1;exitDx=0;exitDy=0;" parent="1" source="91Z8wUPwySo1Unr-oXg9-263" edge="1">
          <mxGeometry width="50" height="50" relative="1" as="geometry">
            <mxPoint x="660" y="640" as="sourcePoint" />
            <mxPoint x="810" y="660" as="targetPoint" />
            <Array as="points">
              <mxPoint x="810" y="660" />
            </Array>
          </mxGeometry>
        </mxCell>
        <mxCell id="91Z8wUPwySo1Unr-oXg9-323" value="" style="rounded=0;whiteSpace=wrap;html=1;fontFamily=Helvetica;fontSize=16;fontColor=#C40000;strokeColor=#000000;fillColor=#E0FFE6;" parent="1" vertex="1">
          <mxGeometry x="510" y="630" width="10" height="10" as="geometry" />
        </mxCell>
        <mxCell id="91Z8wUPwySo1Unr-oXg9-324" value="" style="rounded=0;whiteSpace=wrap;html=1;fontFamily=Helvetica;fontSize=16;fontColor=#C40000;strokeColor=#000000;fillColor=#E0FFE6;" parent="1" vertex="1">
          <mxGeometry x="510" y="640" width="10" height="10" as="geometry" />
        </mxCell>
        <mxCell id="91Z8wUPwySo1Unr-oXg9-325" value="" style="rounded=0;whiteSpace=wrap;html=1;fontFamily=Helvetica;fontSize=16;fontColor=#C40000;strokeColor=#000000;fillColor=#8CFFBE;" parent="1" vertex="1">
          <mxGeometry x="510" y="650" width="10" height="10" as="geometry" />
        </mxCell>
        <mxCell id="91Z8wUPwySo1Unr-oXg9-326" value="" style="rounded=0;whiteSpace=wrap;html=1;fontFamily=Helvetica;fontSize=16;fontColor=#C40000;strokeColor=#000000;fillColor=#C6FFC2;" parent="1" vertex="1">
          <mxGeometry x="510" y="660" width="10" height="10" as="geometry" />
        </mxCell>
        <mxCell id="91Z8wUPwySo1Unr-oXg9-327" value="" style="rounded=0;whiteSpace=wrap;html=1;fontFamily=Helvetica;fontSize=16;fontColor=#C40000;strokeColor=#000000;fillColor=#E0FFE6;" parent="1" vertex="1">
          <mxGeometry x="510" y="680" width="10" height="10" as="geometry" />
        </mxCell>
        <mxCell id="91Z8wUPwySo1Unr-oXg9-328" value="" style="rounded=0;whiteSpace=wrap;html=1;fontFamily=Helvetica;fontSize=16;fontColor=#C40000;strokeColor=#000000;fillColor=#00FF5E;" parent="1" vertex="1">
          <mxGeometry x="510" y="670" width="10" height="10" as="geometry" />
        </mxCell>
        <mxCell id="91Z8wUPwySo1Unr-oXg9-329" value="" style="rounded=0;whiteSpace=wrap;html=1;fontFamily=Helvetica;fontSize=16;fontColor=#C40000;strokeColor=#000000;fillColor=#E0FFE6;" parent="1" vertex="1">
          <mxGeometry x="620" y="630" width="10" height="10" as="geometry" />
        </mxCell>
        <mxCell id="91Z8wUPwySo1Unr-oXg9-330" value="" style="rounded=0;whiteSpace=wrap;html=1;fontFamily=Helvetica;fontSize=16;fontColor=#C40000;strokeColor=#000000;fillColor=#E0FFE6;" parent="1" vertex="1">
          <mxGeometry x="620" y="640" width="10" height="10" as="geometry" />
        </mxCell>
        <mxCell id="91Z8wUPwySo1Unr-oXg9-331" value="" style="rounded=0;whiteSpace=wrap;html=1;fontFamily=Helvetica;fontSize=16;fontColor=#C40000;strokeColor=#000000;fillColor=#8CFFBE;" parent="1" vertex="1">
          <mxGeometry x="620" y="650" width="10" height="10" as="geometry" />
        </mxCell>
        <mxCell id="91Z8wUPwySo1Unr-oXg9-332" value="" style="rounded=0;whiteSpace=wrap;html=1;fontFamily=Helvetica;fontSize=16;fontColor=#C40000;strokeColor=#000000;fillColor=#C6FFC2;" parent="1" vertex="1">
          <mxGeometry x="620" y="660" width="10" height="10" as="geometry" />
        </mxCell>
        <mxCell id="91Z8wUPwySo1Unr-oXg9-333" value="" style="rounded=0;whiteSpace=wrap;html=1;fontFamily=Helvetica;fontSize=16;fontColor=#C40000;strokeColor=#000000;fillColor=#E0FFE6;" parent="1" vertex="1">
          <mxGeometry x="620" y="680" width="10" height="10" as="geometry" />
        </mxCell>
        <mxCell id="91Z8wUPwySo1Unr-oXg9-334" value="" style="rounded=0;whiteSpace=wrap;html=1;fontFamily=Helvetica;fontSize=16;fontColor=#C40000;strokeColor=#000000;fillColor=#E0FFE6;" parent="1" vertex="1">
          <mxGeometry x="620" y="670" width="10" height="10" as="geometry" />
        </mxCell>
        <mxCell id="91Z8wUPwySo1Unr-oXg9-335" value="&lt;font color=&quot;#000000&quot;&gt;Local logits&lt;/font&gt;" style="text;html=1;strokeColor=none;fillColor=none;align=center;verticalAlign=middle;whiteSpace=wrap;rounded=0;fontFamily=Helvetica;fontSize=16;fontColor=#C40000;" parent="1" vertex="1">
          <mxGeometry x="440" y="680" width="60" height="30" as="geometry" />
        </mxCell>
        <mxCell id="91Z8wUPwySo1Unr-oXg9-336" value="&lt;font color=&quot;#000000&quot;&gt;Server logits&lt;/font&gt;" style="text;html=1;strokeColor=none;fillColor=none;align=center;verticalAlign=middle;whiteSpace=wrap;rounded=0;fontFamily=Helvetica;fontSize=16;fontColor=#C40000;" parent="1" vertex="1">
          <mxGeometry x="640" y="680" width="60" height="30" as="geometry" />
        </mxCell>
        <mxCell id="91Z8wUPwySo1Unr-oXg9-338" value="&lt;font color=&quot;#c40000&quot; style=&quot;line-height: 4; font-size: 16px;&quot;&gt;&lt;b style=&quot;&quot;&gt;S2&lt;/b&gt;&lt;/font&gt;" style="text;html=1;strokeColor=none;fillColor=none;align=center;verticalAlign=middle;whiteSpace=wrap;rounded=0;fontFamily=Helvetica;fontSize=16;" parent="1" vertex="1">
          <mxGeometry x="290" y="630" width="60" height="30" as="geometry" />
        </mxCell>
        <mxCell id="91Z8wUPwySo1Unr-oXg9-346" value="" style="endArrow=classic;startArrow=classic;html=1;rounded=0;dashed=1;fontFamily=Helvetica;fontSize=16;fontColor=#000000;" parent="1" edge="1">
          <mxGeometry width="50" height="50" relative="1" as="geometry">
            <mxPoint x="530" y="660" as="sourcePoint" />
            <mxPoint x="610" y="660" as="targetPoint" />
          </mxGeometry>
        </mxCell>
        <mxCell id="91Z8wUPwySo1Unr-oXg9-347" value="" style="edgeStyle=elbowEdgeStyle;elbow=vertical;endArrow=classic;html=1;rounded=0;dashed=1;fontFamily=Helvetica;fontSize=16;fontColor=#3D03FF;entryX=0.25;entryY=1;entryDx=0;entryDy=0;" parent="1" target="91Z8wUPwySo1Unr-oXg9-227" edge="1">
          <mxGeometry width="50" height="50" relative="1" as="geometry">
            <mxPoint x="570" y="660" as="sourcePoint" />
            <mxPoint x="600" y="690" as="targetPoint" />
            <Array as="points">
              <mxPoint x="730" y="730" />
            </Array>
          </mxGeometry>
        </mxCell>
        <mxCell id="91Z8wUPwySo1Unr-oXg9-348" value="&lt;i&gt;&lt;b style=&quot;&quot;&gt;&lt;font color=&quot;#c40000&quot;&gt;S2: Logit-Loss&lt;/font&gt;&lt;/b&gt;&lt;/i&gt;" style="text;html=1;strokeColor=none;fillColor=none;align=center;verticalAlign=middle;whiteSpace=wrap;rounded=0;fontSize=16;" parent="1" vertex="1">
          <mxGeometry x="720" y="730" width="130" height="30" as="geometry" />
        </mxCell>
        <mxCell id="nkRh3mfgNtRdzp9U0h4b-2" value="" style="edgeStyle=elbowEdgeStyle;elbow=vertical;endArrow=classic;html=1;rounded=0;entryX=0.5;entryY=0;entryDx=0;entryDy=0;dashed=1;exitX=0.5;exitY=0;exitDx=0;exitDy=0;" parent="1" source="91Z8wUPwySo1Unr-oXg9-254" target="91Z8wUPwySo1Unr-oXg9-225" edge="1">
          <mxGeometry width="50" height="50" relative="1" as="geometry">
            <mxPoint x="790" y="210" as="sourcePoint" />
            <mxPoint x="840" y="182" as="targetPoint" />
            <Array as="points">
              <mxPoint x="900" y="180" />
            </Array>
          </mxGeometry>
        </mxCell>
        <mxCell id="nkRh3mfgNtRdzp9U0h4b-8" value="&lt;i&gt;&lt;b style=&quot;&quot;&gt;&lt;font color=&quot;#c40000&quot;&gt;S2:Proto-Loss&lt;/font&gt;&lt;/b&gt;&lt;/i&gt;" style="text;html=1;strokeColor=none;fillColor=none;align=center;verticalAlign=middle;whiteSpace=wrap;rounded=0;fontSize=16;" parent="1" vertex="1">
          <mxGeometry x="830" y="152" width="140" height="30" as="geometry" />
        </mxCell>
        <mxCell id="jJ2eoaSUpAPoazrCWmag-4" value="" style="endArrow=classic;html=1;rounded=0;exitX=0;exitY=0.5;exitDx=0;exitDy=0;entryX=0.5;entryY=1;entryDx=0;entryDy=0;dashed=1;" edge="1" parent="1" source="91Z8wUPwySo1Unr-oXg9-335" target="91Z8wUPwySo1Unr-oXg9-57">
          <mxGeometry width="50" height="50" relative="1" as="geometry">
            <mxPoint x="390" y="720" as="sourcePoint" />
            <mxPoint x="210" y="590" as="targetPoint" />
            <Array as="points">
              <mxPoint x="190" y="695" />
            </Array>
          </mxGeometry>
        </mxCell>
        <mxCell id="jJ2eoaSUpAPoazrCWmag-6" value="&lt;i&gt;&lt;font color=&quot;#3d03ff&quot;&gt;&lt;b&gt;S1:Logit-Loss&lt;/b&gt;&lt;/font&gt;&lt;/i&gt;" style="text;html=1;strokeColor=none;fillColor=none;align=center;verticalAlign=middle;whiteSpace=wrap;rounded=0;fontSize=16;" vertex="1" parent="1">
          <mxGeometry x="250" y="700" width="140" height="30" as="geometry" />
        </mxCell>
        <mxCell id="jJ2eoaSUpAPoazrCWmag-8" value="&lt;font style=&quot;font-size: 20px;&quot;&gt;&lt;b style=&quot;font-size: 18px;&quot;&gt;&lt;i&gt;Feature &lt;br&gt;Mapping&lt;/i&gt;&lt;/b&gt;&lt;/font&gt;" style="strokeWidth=2;html=1;shape=mxgraph.flowchart.delay;whiteSpace=wrap;fillColor=#fff2cc;strokeColor=#d6b656;" vertex="1" parent="1">
          <mxGeometry x="585" y="327" width="104.5" height="150" as="geometry" />
        </mxCell>
        <mxCell id="jJ2eoaSUpAPoazrCWmag-10" value="" style="shape=singleArrow;whiteSpace=wrap;html=1;fontColor=#C40000;arrowWidth=0.3515151515151522;arrowSize=0.46458333333333285;" vertex="1" parent="1">
          <mxGeometry x="540" y="400" width="40" height="25" as="geometry" />
        </mxCell>
        <mxCell id="jJ2eoaSUpAPoazrCWmag-12" value="" style="shape=singleArrow;whiteSpace=wrap;html=1;fontColor=#C40000;arrowWidth=0.3515151515151522;arrowSize=0.46458333333333285;" vertex="1" parent="1">
          <mxGeometry x="700" y="400" width="40" height="25" as="geometry" />
        </mxCell>
      </root>
    </mxGraphModel>
  </diagram>
</mxfile>
